<?xml version="1.0" encoding="utf-8"?>
<?xml-stylesheet type="text/xsl" href="rss1.xsl"?>
<rss version="2.0" xmlns:atom="http://www.w3.org/2005/Atom" xmlns:content="http://purl.org/rss/1.0/modules/content/" xmlns:dc="http://purl.org/dc/elements/1.1/" xmlns:media="http://search.yahoo.com/mrss/">
<channel>
 <title>Getty</title>
 <link>http://www.gettyimg.com/</link>
 <atom:link href="http://www.gettyimg.com/" rel="self" type="application/rss+xml" />

 
                <item>
                <title><![CDATA[【MASTER &amp; MASTER RIP】Lil Wayne - Uproar (feat. Swizz Beatz) (MasterRip 1080p AAC)]]></title>
                <link><![CDATA[https://sharemania.us/threads/lil-wayne-uproar-feat-swizz-beatz-masterrip-1080p-aac.235036/]]></link>
                <description><![CDATA[<article>
<blockquote class="messageText SelectQuoteContainer ugc baseHtml">
<a href="https://imgbox.com/pJ8F3wmT" target="_blank" class="externalLink" rel="nofollow"><img src="https://images2.imgbox.com/5d/0e/pJ8F3wmT_o.jpg" class="bbCodeImage LbImage" alt="[​IMG]" data-url="https://images2.imgbox.com/5d/0e/pJ8F3wmT_o.jpg"></a><br>
<br>
<div class="ToggleTriggerAnchor bbCodeSpoilerContainer">
<button type="button" class="button bbCodeSpoilerButton ToggleTrigger Tooltip JsOnly" data-target="> .SpoilerTarget"><span>Spoiler: <span class="SpoilerTitle">MediaInfo</span></span></button>
<div class="SpoilerTarget bbCodeSpoilerText">
<div class="bbCodeBlock bbCodeCode">
<div class="type">Code:</div>
<pre>General
Complete name                            : Lil Wayne - Uproar (feat. Swizz Beatz) (MasterRip 1080p AAC).mp4
Format                                   : MPEG-4
Format profile                           : Base Media / Version 2
Codec ID                                 : mp42 (mp42/iso2/avc1/mp41)
File size                                : 261 MiB
Duration                                 : 3 min 18 s
Overall bit rate                         : 11.0 Mb/s
Frame rate                               : 23.976 FPS
Encoded date                             : 2024-01-01 04:20:27 UTC
Tagged date                              : 2024-01-01 04:20:27 UTC
Writing application                      : HandBrake 1.7.0 2023111800

Video
ID                                       : 1
Format                                   : AVC
Format/Info                              : Advanced Video Codec
Format profile                           : High@L4.1
Format settings                          : CABAC / 4 Ref Frames
Format settings, CABAC                   : Yes
Format settings, Reference frames        : 4 frames
Codec ID                                 : avc1
Codec ID/Info                            : Advanced Video Coding
Duration                                 : 3 min 18 s
Bit rate                                 : 10.7 Mb/s
Width                                    : 1 920 pixels
Height                                   : 1 012 pixels
Display aspect ratio                     : 1.897
Frame rate mode                          : Variable
Frame rate                               : 23.976 (24000/1001) FPS
Minimum frame rate                       : 23.974 FPS
Maximum frame rate                       : 23.981 FPS
Color space                              : YUV
Chroma subsampling                       : 4:2:0
Bit depth                                : 8 bits
Scan type                                : Progressive
Bits/(Pixel*Frame)                       : 0.230
Stream size                              : 253 MiB (97%)
Writing library                          : x264 core 163 r3060 5db6aa6
Encoding settings                        : cabac=1 / ref=4 / deblock=1:0:0 / analyse=0x3:0x133 / me=umh / subme=10 / psy=1 / psy_rd=1.00:0.00 / mixed_ref=1 / me_range=24 / chroma_me=1 / trellis=2 / 8x8dct=1 / cqm=0 / deadzone=21,11 / fast_pskip=1 / chroma_qp_offset=-2 / threads=32 / lookahead_threads=5 / sliced_threads=0 / nr=0 / decimate=1 / interlaced=0 / bluray_compat=0 / constrained_intra=0 / bframes=8 / b_pyramid=2 / b_adapt=2 / b_bias=0 / direct=3 / weightb=1 / open_gop=0 / weightp=2 / keyint=240 / keyint_min=24 / scenecut=40 / intra_refresh=0 / rc_lookahead=60 / rc=crf / mbtree=1 / crf=20.0 / qcomp=0.60 / qpmin=0 / qpmax=69 / qpstep=4 / vbv_maxrate=62500 / vbv_bufsize=78125 / crf_max=0.0 / nal_hrd=none / filler=0 / ip_ratio=1.40 / aq=1:1.00
Encoded date                             : 2024-01-01 04:20:27 UTC
Tagged date                              : 2024-01-01 04:20:27 UTC
Color range                              : Limited
Color primaries                          : BT.709
Transfer characteristics                 : BT.709
Matrix coefficients                      : BT.709
Codec configuration box                  : avcC

Audio
ID                                       : 2
Format                                   : AAC LC
Format/Info                              : Advanced Audio Codec Low Complexity
Codec ID                                 : mp4a-40-2
Duration                                 : 3 min 18 s
Bit rate mode                            : Constant
Bit rate                                 : 310 kb/s
Channel(s)                               : 2 channels
Channel layout                           : L R
Sampling rate                            : 44.1 kHz
Frame rate                               : 43.066 FPS (1024 SPF)
Compression mode                         : Lossy
Stream size                              : 7.32 MiB (3%)
Title                                    : Stereo / Stereo
Language                                 : English
Default                                  : Yes
Alternate group                          : 1
Encoded date                             : 2024-01-01 04:20:27 UTC
Tagged date                              : 2024-01-01 04:20:27 UTC
</pre>
</div></div>
</div><br>
<div class="bbCodeBlock bbCodeVfcHH HiddenContent">
<div class="attribution type">Hidden Content:</div>
<blockquote>You must either reply or click 'Like' to see the hidden information contained here.</blockquote>
</div>
<div class="messageTextEndMarker">&nbsp;</div>
</blockquote>
</article>]]></description>
                <author><![CDATA[vinhtq115]]></author>
                </item>

                </channel></rss>